<?xml version="1.0" encoding="UTF-8"?>
<svg xmlns="http://www.w3.org/2000/svg" xmlns:xlink="http://www.w3.org/1999/xlink" width="20px" height="20px" viewBox="0 0 49 39" version="1.1">
<g id="surface1">
<rect x="0" y="0" width="20" height="20" style="fill:rgb(9.411765%,12.156863%,12.156863%);fill-opacity:1;stroke:none;"/>
<path style=" stroke:none;fill-rule:evenodd;fill:rgb(89.019608%,89.019608%,89.019608%);fill-opacity:1;" d="M 20.609375 16.914062 C 24.710938 20.453125 25.980469 25.90625 24.363281 31.003906 L 36.910156 31.003906 C 38.105469 27.433594 41.703125 25.386719 45.742188 27.117188 L 47.191406 18.507812 C 47.4375 17.054688 46 15.832031 44.539062 15.832031 L 36.441406 15.832031 L 36.441406 9.347656 C 36.441406 8.84375 36.039062 8.421875 35.539062 8.398438 L 35.539062 5.046875 L 34.300781 5.046875 L 34.300781 8.398438 C 33.8125 8.433594 33.425781 8.847656 33.425781 9.34375 L 33.425781 15.832031 L 27.101562 15.832031 C 28.3125 10.058594 26.898438 8.085938 26.085938 2.210938 C 25.761719 1.371094 25.132812 1.179688 24.417969 1.160156 L 9.679688 1.160156 C 8.941406 1.167969 8.429688 1.535156 8.160156 2.308594 L 7.164062 12.019531 L 5.171875 14.390625 C 4.304688 15.40625 4.554688 15.171875 5.355469 16.382812 C 5.492188 16.285156 5.632812 16.183594 5.773438 16.089844 C 9.960938 13.324219 16.667969 13.824219 20.609375 16.914062 Z M 35.363281 3.246094 C 35.421875 3.191406 35.511719 3.1875 35.574219 3.242188 C 35.632812 3.300781 35.636719 3.394531 35.578125 3.457031 C 35.46875 3.570312 35.507812 3.738281 35.546875 3.890625 C 35.617188 4.15625 35.679688 4.394531 35.363281 4.574219 C 35.292969 4.617188 35.203125 4.589844 35.160156 4.523438 C 35.121094 4.453125 35.148438 4.359375 35.21875 4.316406 C 35.332031 4.25 35.300781 4.117188 35.261719 3.96875 C 35.203125 3.738281 35.136719 3.488281 35.363281 3.246094 Z M 34.46875 3.246094 C 34.527344 3.191406 34.617188 3.1875 34.679688 3.242188 C 34.738281 3.300781 34.742188 3.394531 34.683594 3.457031 C 34.570312 3.570312 34.613281 3.738281 34.652344 3.890625 C 34.722656 4.15625 34.78125 4.394531 34.46875 4.574219 C 34.394531 4.617188 34.308594 4.589844 34.265625 4.523438 C 34.222656 4.449219 34.25 4.359375 34.320312 4.316406 C 34.433594 4.25 34.398438 4.117188 34.359375 3.96875 C 34.304688 3.738281 34.238281 3.488281 34.46875 3.246094 Z M 18.164062 4.371094 L 18.164062 11.535156 C 19.808594 11.910156 21.429688 12.421875 23.027344 13.078125 C 23.859375 13.421875 24.84375 12.3125 24.667969 11.421875 L 23.597656 6.023438 C 23.421875 5.132812 22.859375 4.367188 21.953125 4.367188 L 18.164062 4.367188 Z M 16.535156 11.207031 L 16.535156 4.371094 L 12.476562 4.371094 C 11.574219 4.371094 11.039062 5.140625 10.832031 6.027344 L 10.121094 9.125 C 9.917969 10.011719 10.859375 10.765625 11.765625 10.78125 C 13.371094 10.796875 14.960938 10.9375 16.535156 11.207031 Z M 43.199219 27.800781 C 45.953125 27.800781 48.1875 30.054688 48.1875 32.832031 C 48.1875 35.609375 45.957031 37.859375 43.199219 37.859375 C 40.445312 37.859375 38.214844 35.609375 38.214844 32.832031 C 38.214844 30.054688 40.449219 27.800781 43.199219 27.800781 Z M 11.800781 16.523438 C 17.6875 16.523438 22.457031 21.335938 22.457031 27.269531 C 22.457031 33.203125 17.6875 38.015625 11.800781 38.015625 C 5.917969 38.015625 1.148438 33.203125 1.148438 27.269531 C 1.148438 21.335938 5.917969 16.523438 11.800781 16.523438 Z M 11.800781 21.492188 C 14.964844 21.492188 17.527344 24.078125 17.527344 27.269531 C 17.527344 30.457031 14.964844 33.046875 11.800781 33.046875 C 8.640625 33.046875 6.074219 30.457031 6.074219 27.269531 C 6.074219 24.078125 8.640625 21.492188 11.800781 21.492188 Z M 43.199219 30.28125 C 44.597656 30.28125 45.726562 31.425781 45.726562 32.828125 C 45.726562 34.238281 44.59375 35.378906 43.199219 35.378906 C 41.804688 35.378906 40.671875 34.234375 40.671875 32.828125 C 40.671875 31.425781 41.808594 30.28125 43.199219 30.28125 Z M 35.789062 18.976562 L 42.085938 18.976562 L 41.945312 19.707031 L 35.667969 19.707031 Z M 33.582031 22.929688 L 42.085938 22.929688 L 41.945312 23.664062 L 33.453125 23.664062 Z M 34.363281 20.953125 L 42.089844 20.953125 L 41.949219 21.683594 L 34.238281 21.683594 Z M 34.363281 20.953125 "/>
</g>
</svg>
