<?xml version="1.0" standalone="no"?>
<svg viewBox="0 0 200 200" xmlns="http://www.w3.org/2000/svg">
  <path fill="#2E2D2D" d="M39,-69.7C46.8,-63,46.9,-45.1,51.5,-31.6C56.1,-18.1,65.3,-9,71.7,3.7C78.1,16.4,81.8,32.9,73.7,40.3C65.6,47.8,45.7,46.2,31.4,47.7C17.2,49.1,8.6,53.5,-3,58.7C-14.6,63.9,-29.2,69.9,-40,66.5C-50.9,63.1,-58,50.4,-64.4,37.7C-70.8,25.1,-76.4,12.5,-79,-1.5C-81.5,-15.5,-81,-31,-72.1,-39.3C-63.2,-47.6,-46.1,-48.8,-32.7,-52.3C-19.3,-55.7,-9.6,-61.4,3,-66.5C15.6,-71.7,31.2,-76.3,39,-69.7Z" transform="translate(100 100)" />
</svg>
