<svg id="visual" viewBox="0 0 1400 200" width="1400" height="200" xmlns="http://www.w3.org/2000/svg" xmlns:xlink="http://www.w3.org/1999/xlink" version="1.1"><path d="M0 87L46.7 97C93.3 107 186.7 127 280 122.2C373.3 117.3 466.7 87.7 560 87.3C653.3 87 746.7 116 840 120.5C933.3 125 1026.7 105 1120 95.7C1213.3 86.3 1306.7 87.7 1353.3 88.3L1400 89L1400 201L1353.3 201C1306.7 201 1213.3 201 1120 201C1026.7 201 933.3 201 840 201C746.7 201 653.3 201 560 201C466.7 201 373.3 201 280 201C186.7 201 93.3 201 46.7 201L0 201Z" fill="#06592d" stroke-linecap="round" stroke-linejoin="miter"></path></svg>