<svg id="visual" viewBox="0 0 1300 720" width="1300" height="720" xmlns="http://www.w3.org/2000/svg" xmlns:xlink="http://www.w3.org/1999/xlink" version="1.1"><path d="M0 666L15.5 661.3C31 656.7 62 647.3 93 642.5C124 637.7 155 637.3 186 639.8C217 642.3 248 647.7 278.8 651.8C309.7 656 340.3 659 371.2 657.2C402 655.3 433 648.7 464 640.5C495 632.3 526 622.7 557 627.8C588 633 619 653 650 659.5C681 666 712 659 743 657.8C774 656.7 805 661.3 836 666C867 670.7 898 675.3 928.8 669.2C959.7 663 990.3 646 1021.2 638C1052 630 1083 631 1114 630.2C1145 629.3 1176 626.7 1207 624C1238 621.3 1269 618.7 1284.5 617.3L1300 616L1300 721L1284.5 721C1269 721 1238 721 1207 721C1176 721 1145 721 1114 721C1083 721 1052 721 1021.2 721C990.3 721 959.7 721 928.8 721C898 721 867 721 836 721C805 721 774 721 743 721C712 721 681 721 650 721C619 721 588 721 557 721C526 721 495 721 464 721C433 721 402 721 371.2 721C340.3 721 309.7 721 278.8 721C248 721 217 721 186 721C155 721 124 721 93 721C62 721 31 721 15.5 721L0 721Z" fill="#06592d" stroke-linecap="round" stroke-linejoin="miter"></path></svg>